<svg width="41" height="38" viewBox="0 0 41 38" fill="none" xmlns="http://www.w3.org/2000/svg">
<g id="Group" filter="url(#filter0_d_1_54)">
<path id="Vector" d="M27.5407 4.82031C30.3501 4.8221 33.1586 4.82389 35.968 4.82658C36.7279 4.82747 36.9435 5.12098 36.6612 5.77691C35.998 7.31784 35.3377 8.86056 34.6619 10.397C34.5633 10.6207 34.5585 10.8051 34.658 11.0306C35.3425 12.5885 36.0125 14.1509 36.6854 15.7124C36.9367 16.2968 36.7028 16.6091 36.0144 16.6091C33.8199 16.61 31.6253 16.6109 29.4317 16.6091C27.676 16.6073 26.4811 15.5603 26.3748 13.9335C26.4966 13.8145 26.6609 13.835 26.8137 13.8225C27.2661 13.7858 27.3966 13.6605 27.4198 13.2346C27.4266 13.1013 27.4237 12.9679 27.4237 12.8346C27.4237 10.3541 27.4227 7.87354 27.4266 5.39302C27.4256 5.19883 27.3744 4.98944 27.5407 4.82031Z" fill="#E61E14"/>
<path id="Vector_2" d="M16.9821 29.9901C15.9727 29.9462 14.9615 29.9265 13.9541 29.8523C12.4083 29.7377 10.8682 29.5677 9.3494 29.2634C8.23085 29.0388 7.1268 28.7704 6.12232 28.2335C5.82746 28.076 5.56546 27.8818 5.34117 27.6456C4.83652 27.1158 4.83942 26.4491 5.34987 25.9212C5.92607 25.3261 6.69465 25.0299 7.48354 24.7811C8.98203 24.3096 10.5347 24.0769 12.1008 23.9024C13.3799 23.7601 14.6608 23.6563 15.9486 23.625C16.0791 23.7225 16.0694 23.863 16.0704 23.9946C16.0772 24.6192 16.081 25.2438 16.0694 25.8684C16.0617 26.2639 15.9766 26.3364 15.559 26.3543C15.5232 26.3561 15.4865 26.3552 15.4507 26.3561C14.9547 26.3668 14.7894 26.5932 14.9325 27.046C14.9895 27.2259 15.1375 27.2133 15.2776 27.2151C15.7717 27.2223 16.2657 27.2178 16.7597 27.2178C17.8328 27.2178 18.905 27.2205 19.9781 27.2151C20.1386 27.2142 20.3493 27.2688 20.4286 27.089C20.5166 26.8912 20.5088 26.6693 20.4296 26.4661C20.3793 26.3382 20.2285 26.3677 20.1125 26.357C19.8766 26.3355 19.6271 26.4008 19.4096 26.2612C19.3729 26.2165 19.3429 26.1664 19.341 26.1109C19.3149 25.3512 19.2714 24.5914 19.3651 23.8326C19.4589 23.6688 19.6213 23.6957 19.778 23.71C21.436 23.8657 23.0785 24.1028 24.6747 24.5574C25.5293 24.8008 26.3646 25.0899 27.0355 25.6742C27.8215 26.3579 27.8205 27.2035 27.0423 27.8943C26.5038 28.3722 25.8406 28.6299 25.1571 28.8554C23.7185 29.3297 22.221 29.5623 20.7148 29.7547C19.6281 29.8934 18.5357 29.957 17.4393 29.965C17.2895 29.9775 17.1338 29.9435 16.9821 29.9901Z" fill="#61DE56"/>
<path id="Vector_3" d="M27.5368 4.81361C27.5358 7.57781 27.5349 10.3429 27.5339 13.1071C27.5339 13.8042 27.4053 13.9241 26.659 13.925C26.5623 13.925 26.4666 13.9268 26.3699 13.9277C24.0613 13.9268 21.7526 13.9259 19.443 13.9259C19.2961 13.8069 19.3154 13.6431 19.3154 13.4901C19.3115 9.85252 19.3115 6.21495 19.3154 2.57738C19.3154 2.42436 19.2961 2.26061 19.443 2.14159C21.1378 2.14159 22.8335 2.13891 24.5282 2.14249C26.2433 2.14607 27.4595 3.22973 27.5368 4.81361Z" fill="#FD3018"/>
<path id="Vector_4" d="M19.4412 26.2444C19.7535 26.2453 20.0667 26.2507 20.379 26.2471C20.7348 26.2426 20.6149 26.5129 20.5791 26.6283C20.5076 26.8574 20.8518 27.2914 20.3809 27.3021C18.5905 27.3442 16.7981 27.3174 15.0067 27.3218C14.8433 27.3218 14.8143 27.2574 14.8036 27.1223C14.736 26.2596 14.7321 26.2516 15.6476 26.2543C15.898 26.2552 15.9763 26.1952 15.9705 25.9581C15.9512 25.1796 15.956 24.401 15.9522 23.6216C15.956 23.4767 15.9638 23.3317 15.9638 23.1867C15.9647 16.0351 15.9638 8.88345 15.9647 1.73181C15.9647 0.894228 16.3708 0.354634 17.1974 0.078125C17.8219 0.232039 18.3101 0.798479 18.3817 1.4553C18.402 1.64411 18.3942 1.83382 18.3942 2.02353C18.3942 9.75324 18.3942 17.483 18.3942 25.2118C18.3942 25.312 18.3942 25.4122 18.3942 25.5133C18.3913 26.1746 18.4068 26.1433 19.0304 26.1433C19.1763 26.1424 19.3214 26.1505 19.4412 26.2444Z" fill="#546F7A"/>
<path id="Vector_5" d="M19.4353 26.2455C19.1336 26.2464 18.832 26.2419 18.5313 26.2509C18.3525 26.2563 18.2558 26.2044 18.2723 26.0236C18.281 25.935 18.2732 25.8455 18.2732 25.756C18.2732 17.7999 18.2684 9.84381 18.281 1.8877C18.2819 1.11008 18.0151 0.523054 17.2571 0.156165C17.2281 0.141848 17.2127 0.105159 17.1914 0.0792082C18.2259 -0.247412 19.384 0.478311 19.4285 1.48144C19.4382 1.70247 19.4382 1.92439 19.442 2.14542C19.4382 3.48053 19.4304 4.81565 19.4314 6.15166C19.4324 8.74494 19.4382 11.3373 19.442 13.9306C19.4382 15.6997 19.4314 17.4688 19.4314 19.238C19.4314 20.684 19.4382 22.131 19.442 23.5771C19.4952 23.6424 19.4894 23.7068 19.442 23.7722C19.4401 24.5972 19.4372 25.4214 19.4353 26.2455Z" fill="#334347"/>
<path id="Vector_6" d="M19.4492 23.7732C19.4492 23.7079 19.4492 23.6426 19.4492 23.5781C22.2741 23.6989 25.0932 23.8752 27.836 24.5804C28.7418 24.813 29.6293 25.0967 30.3689 25.6676C31.2467 26.345 31.2429 27.2309 30.3592 27.9119C29.6293 28.4738 28.7525 28.7548 27.8601 28.9884C26.1316 29.4403 24.3595 29.6595 22.5729 29.8072C20.8559 29.9495 19.1379 30.0327 17.4142 29.9897C17.39 29.9781 17.3813 29.9656 17.39 29.9539C17.3977 29.9423 17.4064 29.936 17.4142 29.936C18.7773 29.8707 20.1318 29.7383 21.4824 29.5495C22.7537 29.3714 24.0076 29.1396 25.2189 28.7378C25.8657 28.524 26.4815 28.2636 26.9978 27.817C27.7064 27.2041 27.7035 26.3674 26.9891 25.7526C26.323 25.179 25.5051 24.8953 24.6688 24.6519C23.2602 24.2412 21.8033 24.0345 20.3445 23.8511C20.0477 23.8117 19.748 23.7983 19.4492 23.7732Z" fill="#13C37B"/>
<path id="Vector_7" d="M17.4136 29.9353C17.4127 29.9532 17.4127 29.9711 17.4136 29.989C17.2705 29.989 17.1275 29.9881 16.9844 29.9881C17.1159 29.8878 17.2705 29.9505 17.4136 29.9353Z" fill="#FEC53A"/>
</g>
<defs>
<filter id="filter0_d_1_54" x="0.964844" y="0" width="39.8187" height="38.001" filterUnits="userSpaceOnUse" color-interpolation-filters="sRGB">
<feFlood flood-opacity="0" result="BackgroundImageFix"/>
<feColorMatrix in="SourceAlpha" type="matrix" values="0 0 0 0 0 0 0 0 0 0 0 0 0 0 0 0 0 0 127 0" result="hardAlpha"/>
<feOffset dy="4"/>
<feGaussianBlur stdDeviation="2"/>
<feComposite in2="hardAlpha" operator="out"/>
<feColorMatrix type="matrix" values="0 0 0 0 0 0 0 0 0 0 0 0 0 0 0 0 0 0 0.25 0"/>
<feBlend mode="normal" in2="BackgroundImageFix" result="effect1_dropShadow_1_54"/>
<feBlend mode="normal" in="SourceGraphic" in2="effect1_dropShadow_1_54" result="shape"/>
</filter>
</defs>
</svg>
