<svg width="30" height="30" viewBox="0 0 30 30" fill="none" xmlns="http://www.w3.org/2000/svg">
<g id="Frame" clip-path="url(#clip0_1_141)">
<g id="Group">
<path id="Vector" d="M29.9591 10.4735C29.9634 10.56 29.9704 10.6474 29.9704 10.7339C29.9713 16.2915 29.9722 21.849 29.9695 27.4074C29.9687 28.7177 29.2461 29.6635 28.0523 29.9388C27.8272 29.9904 27.5985 29.9886 27.3708 29.9886C19.1251 29.9895 10.8794 29.9764 2.63375 30.0009C1.11184 30.0052 0.021028 28.8436 0.0262639 27.473C0.0463349 21.8612 0.0341177 16.2486 0.0349904 10.636C0.0349904 10.5819 0.0428443 10.5277 0.0463349 10.4735C0.204285 10.3389 0.397141 10.3756 0.577779 10.3756C2.50285 10.3721 4.42879 10.3738 6.35386 10.3738C14.0122 10.3738 21.6698 10.3729 29.3281 10.3764C29.5419 10.3756 29.768 10.3222 29.9591 10.4735Z" fill="#E61E14"/>
<path id="Vector_2" d="M29.959 10.4735C19.9881 10.4735 10.0181 10.4735 0.0471724 10.4735C0.0393185 10.4534 0.0244834 10.4333 0.0244834 10.4132C0.0183749 8.61513 -0.0409654 6.81623 0.0489177 5.02083C0.113494 3.74464 1.16766 2.79799 2.44347 2.77089C2.95485 2.7604 3.46622 2.76128 3.97672 2.77177C4.15998 2.77526 4.22194 2.72194 4.21757 2.53401C4.20536 2.055 4.20885 1.57512 4.21495 1.09612C4.22368 0.453653 4.63034 0.0148544 5.22112 0.000868809C5.82587 -0.0131168 6.27965 0.423933 6.29972 1.06552C6.31455 1.55502 6.31106 2.04626 6.29972 2.53663C6.29535 2.72457 6.35731 2.77264 6.53795 2.77177C7.85391 2.76477 9.16987 2.7639 10.4858 2.77264C10.6865 2.77439 10.7145 2.69572 10.711 2.5244C10.7014 2.05588 10.7022 1.58736 10.7092 1.11884C10.7179 0.451905 11.1534 -0.00437579 11.7677 -5.29154e-06C12.369 0.00436521 12.7888 0.453653 12.7966 1.10835C12.8018 1.58736 12.8045 2.06724 12.794 2.54625C12.7905 2.71582 12.8402 2.77177 13.013 2.77089C14.3403 2.76477 15.6668 2.76477 16.9941 2.77089C17.1668 2.77177 17.2166 2.71582 17.214 2.54625C17.2044 2.05588 17.2052 1.56551 17.2122 1.07514C17.2209 0.443164 17.6442 0.00436521 18.2376 -0.000879392C18.8258 -0.00612399 19.276 0.430926 19.2961 1.05154C19.3118 1.53054 19.3075 2.01043 19.2961 2.48943C19.2917 2.68436 19.3197 2.77439 19.5535 2.77264C20.859 2.7604 22.1636 2.76303 23.4691 2.77002C23.6498 2.77089 23.7135 2.72457 23.7082 2.53576C23.696 2.06724 23.6995 1.59872 23.7056 1.13021C23.7143 0.456275 24.1393 -5.29154e-06 24.7511 -0.00175349C25.3671 -0.00262759 25.7869 0.448408 25.793 1.12584C25.7974 1.59435 25.8017 2.06287 25.7904 2.53139C25.7851 2.71845 25.8471 2.76827 26.0304 2.77002C26.6491 2.77789 27.273 2.70009 27.8865 2.80761C29.164 3.03225 29.9538 3.92034 29.9826 5.24547C30.0192 6.94472 29.9922 8.64485 29.9905 10.345C29.9887 10.3896 29.9695 10.4315 29.959 10.4735Z" fill="#FD3018"/>
<path id="Vector_3" d="M6.6226 16.3798C6.3835 16.3798 6.14439 16.3894 5.90615 16.378C5.34766 16.3518 4.90173 15.8833 4.90173 15.3352C4.90173 14.781 5.34068 14.3108 5.90354 14.2933C6.40269 14.2775 6.90272 14.2758 7.40101 14.2942C7.95688 14.3151 8.40106 14.8038 8.39059 15.3501C8.37925 15.8903 7.94816 16.3465 7.40362 16.3771C7.14357 16.3911 6.88265 16.3798 6.6226 16.3798Z" fill="#61DE56"/>
<path id="Vector_4" d="M23.3505 16.3806C23.1114 16.3806 22.8723 16.3894 22.634 16.3789C22.0721 16.3562 21.6261 15.8999 21.6157 15.3483C21.6052 14.7828 22.0555 14.3073 22.6367 14.2915C23.1245 14.2784 23.614 14.2767 24.1018 14.2924C24.6612 14.3108 25.1063 14.7863 25.1045 15.3361C25.1028 15.8876 24.6595 16.3518 24.0992 16.3771C23.8505 16.3894 23.6001 16.3798 23.3505 16.3806Z" fill="#13C37B"/>
<path id="Vector_5" d="M6.64351 19.1821C6.89309 19.1821 7.14267 19.1725 7.39224 19.1839C7.93067 19.2084 8.34867 19.6236 8.38881 20.1611C8.42634 20.662 8.06069 21.1611 7.53885 21.2336C6.94806 21.3167 6.34594 21.3158 5.75602 21.2345C5.23331 21.1628 4.86766 20.6664 4.90257 20.1637C4.94097 19.6131 5.36508 19.2031 5.92706 19.1821C6.1653 19.1734 6.4044 19.1804 6.64351 19.1804C6.64351 19.1813 6.64351 19.1813 6.64351 19.1821Z" fill="#61DE56"/>
<path id="Vector_6" d="M23.3705 21.2677C23.1209 21.2677 22.8705 21.2835 22.6218 21.2642C22.0345 21.2188 21.5947 20.7389 21.6165 20.1873C21.6383 19.6157 22.0816 19.1917 22.6829 19.1804C23.1384 19.1716 23.5948 19.1716 24.0503 19.1813C24.6324 19.1935 25.0678 19.6087 25.1045 20.1681C25.1385 20.7048 24.7223 21.1961 24.1516 21.2572C23.8941 21.2852 23.6315 21.2616 23.3714 21.2616C23.3705 21.2642 23.3705 21.266 23.3705 21.2677Z" fill="#13C37B"/>
<path id="Vector_7" d="M6.65407 26.1391C6.39402 26.1391 6.13223 26.1505 5.87305 26.1365C5.3547 26.1076 4.94542 25.6924 4.90354 25.168C4.86427 24.6767 5.21158 24.1785 5.71423 24.0972C6.32508 23.9993 6.94903 24.0045 7.56076 24.0937C8.06341 24.1663 8.41945 24.6619 8.38978 25.1514C8.35662 25.6881 7.94036 26.1111 7.40368 26.1382C7.1541 26.1505 6.90365 26.14 6.65407 26.1391Z" fill="#61DE56"/>
<path id="Vector_8" d="M23.3679 26.1391C23.1079 26.1391 22.8461 26.1513 22.5869 26.1365C22.0685 26.1076 21.6593 25.6907 21.6183 25.1662C21.5799 24.675 21.9272 24.1767 22.4307 24.0972C23.0415 24.0002 23.6655 24.0045 24.2772 24.0946C24.779 24.168 25.1359 24.6645 25.1045 25.1531C25.0705 25.6898 24.6533 26.1111 24.1167 26.1382C23.8679 26.1505 23.6175 26.14 23.3679 26.14C23.3679 26.1391 23.3679 26.1391 23.3679 26.1391Z" fill="#13C37B"/>
<path id="Vector_9" d="M12.2059 16.3806C11.9668 16.3806 11.7276 16.3885 11.4894 16.3789C10.9091 16.3544 10.4763 15.8903 10.485 15.3134C10.4937 14.7513 10.9248 14.3073 11.4981 14.2915C11.9755 14.2793 12.4537 14.2793 12.9302 14.2915C13.5113 14.3055 13.9599 14.7714 13.9573 15.3396C13.9547 15.9078 13.5061 16.3614 12.9214 16.3798C12.6832 16.3876 12.4441 16.3815 12.2059 16.3806Z" fill="#13C37B"/>
<path id="Vector_10" d="M17.7594 16.3806C17.5203 16.3806 17.2811 16.3903 17.0429 16.378C16.4827 16.3492 16.0463 15.8841 16.049 15.33C16.0516 14.7723 16.4862 14.3108 17.0516 14.2933C17.5394 14.2784 18.0281 14.2784 18.5168 14.2924C19.0858 14.309 19.5169 14.7627 19.5221 15.323C19.5273 15.9016 19.0945 16.3562 18.5081 16.3789C18.2585 16.3885 18.0089 16.3806 17.7594 16.3806Z" fill="#61DE56"/>
<path id="Vector_11" d="M17.7707 26.1391C17.5211 26.1391 17.2707 26.1496 17.022 26.1365C16.5158 26.1094 16.1005 25.7047 16.0516 25.2056C16.001 24.6837 16.3326 24.1811 16.8492 24.0981C17.4705 23.9984 18.1058 23.9976 18.7271 24.0981C19.2464 24.182 19.5597 24.6671 19.5169 25.2082C19.4767 25.7108 19.0701 26.1094 18.5517 26.1365C18.2926 26.1505 18.0316 26.14 17.7707 26.1391Z" fill="#61DE56"/>
<path id="Vector_12" d="M12.2119 21.2712C11.9841 21.2712 11.7555 21.2808 11.5286 21.2695C10.909 21.238 10.4788 20.7948 10.4849 20.2048C10.491 19.6113 10.9256 19.1909 11.5574 19.1804C12.0129 19.1734 12.4693 19.1716 12.924 19.1821C13.4868 19.1952 13.9232 19.6139 13.9572 20.1524C13.9912 20.6969 13.6177 21.1707 13.0566 21.2459C12.78 21.2826 12.4946 21.252 12.2128 21.252C12.2119 21.259 12.2119 21.2651 12.2119 21.2712Z" fill="#13C37B"/>
<path id="Vector_13" d="M17.7856 19.1813C18.0351 19.1821 18.2847 19.1725 18.5343 19.1839C19.0684 19.2083 19.4837 19.6122 19.5187 20.1279C19.5562 20.6838 19.2281 21.1558 18.6827 21.2336C18.0927 21.3176 17.4906 21.3167 16.8998 21.2345C16.3597 21.1593 16.0089 20.6655 16.0516 20.1331C16.0935 19.6052 16.5202 19.2031 17.07 19.183C17.3074 19.1734 17.5465 19.1804 17.7856 19.1813Z" fill="#61DE56"/>
<path id="Vector_14" d="M12.2285 26.1391C11.9685 26.1391 11.7075 26.1505 11.4475 26.1365C10.9326 26.1085 10.5251 25.7029 10.4884 25.2012C10.4492 24.6549 10.7598 24.1802 11.2843 24.0972C11.9056 23.9993 12.5409 23.9984 13.1622 24.0998C13.6605 24.1811 13.993 24.6759 13.9555 25.1811C13.9171 25.6959 13.4991 26.1111 12.9764 26.1373C12.7277 26.1505 12.4781 26.14 12.2285 26.1391Z" fill="#13C37B"/>
</g>
</g>
<defs>
<clipPath id="clip0_1_141">
<rect width="30" height="30" fill="white"/>
</clipPath>
</defs>
</svg>
