<svg width="38" height="38" viewBox="0 0 38 38" fill="none" xmlns="http://www.w3.org/2000/svg">
<g id="Group" filter="url(#filter0_d_1_77)">
<path id="Vector" d="M33.9991 14.532C33.9991 14.8444 33.9991 15.1568 33.9991 15.4692C33.9522 15.6058 33.9522 15.7424 33.9991 15.8795C33.9991 16.0161 33.9991 16.1527 33.9991 16.2898C33.9305 16.7265 33.9486 17.1702 33.8988 17.6081C33.7687 18.757 33.4076 19.8413 32.9657 20.9017C32.3719 22.3272 31.5694 23.6291 30.5642 24.7961C28.3151 27.4074 25.5139 29.1131 22.1312 29.8312C21.5814 29.9478 21.0145 29.9308 20.4548 29.9719C20.3792 29.9771 20.2983 29.9467 20.2291 30.0006C20.1312 30.0006 20.0339 30.0006 19.936 30.0006C19.8381 29.9543 19.7408 29.9543 19.6429 30.0006C19.4278 30.0006 19.2133 30.0006 18.9982 30.0006C18.8968 29.922 18.8639 29.813 18.8628 29.6917C18.8487 28.6126 18.8464 27.5335 18.8645 26.4543C18.8657 26.3864 18.8768 26.3184 18.9085 26.2574C18.9818 26.061 19.1576 26.0593 19.3217 26.0528C20.5902 26.0048 21.817 25.7615 23.0016 25.3002C24.1769 24.8424 25.2437 24.2029 26.1985 23.3823C27.7835 22.0201 28.9036 20.3372 29.5273 18.3467C30.4024 15.553 30.1961 12.8251 28.937 10.1757C28.4241 9.09713 27.7506 8.12645 26.9165 7.28649C25.1745 5.5333 23.0807 4.43016 20.6183 4.06909C20.1846 4.0052 19.7496 3.94893 19.3088 3.946C19.1541 3.94482 18.9906 3.93369 18.9126 3.75667C18.854 3.62771 18.8563 3.48997 18.8557 3.35339C18.8516 2.39737 18.8511 1.44136 18.8563 0.485923C18.8575 0.313007 18.8376 0.128954 18.9976 0C19.4079 0 19.8176 0 20.2279 0C20.6746 0.049237 21.1236 0.0562709 21.5708 0.094371C22.5069 0.174674 23.3955 0.456615 24.2689 0.780759C25.9306 1.39739 27.4464 2.2737 28.7905 3.43018C31.1527 5.46296 32.7781 7.96936 33.6192 10.9816C33.8595 11.8427 33.9363 12.7178 33.9686 13.6029C33.9703 13.6598 33.9527 13.7207 33.9973 13.77C33.9973 13.8872 33.9973 14.0044 33.9973 14.1216C33.9522 14.2582 33.9522 14.3948 33.9991 14.532Z" fill="#E61E14"/>
<path id="Vector_2" d="M19.0038 26.2C19.0026 27.4661 19.0015 28.7321 19.0003 29.9982C18.7271 29.9982 18.4534 29.9982 18.1803 29.9982C18.1023 29.9531 18.0238 29.9531 17.9458 29.9982C17.8678 29.9982 17.7893 29.9982 17.7113 29.9982C17.3204 29.9261 16.9224 29.9373 16.5285 29.9015C15.2536 29.7866 14.0666 29.3599 12.9019 28.8658C11.4987 28.2703 10.2297 27.4508 9.08841 26.4456C7.75491 25.2709 6.62422 23.9257 5.75905 22.3636C5.02577 21.0389 4.49706 19.6403 4.18522 18.1603C4.06506 17.5893 4.0762 17.0044 4.02931 16.4258C4.0252 16.3783 4.03751 16.3279 4 16.2881C4 16.1902 4 16.0929 4 15.995C4.03576 15.9557 4.03576 15.917 4 15.8778C4 15.2916 4 14.706 4 14.1199C4.04279 14.0613 4.04279 14.0027 4 13.944C4 13.8661 4 13.7875 4 13.7096C4.06917 13.2946 4.05334 12.8726 4.09672 12.4564C4.22567 11.2296 4.63246 10.0801 5.10725 8.95293C5.7104 7.52037 6.54567 6.22848 7.57144 5.06672C8.75372 3.72795 10.1095 2.59608 11.6833 1.73267C12.9928 1.01405 14.3732 0.495301 15.8327 0.185811C16.406 0.0644771 16.9927 0.0762001 17.573 0.0287216C17.6392 0.0234462 17.7102 0.0498232 17.7694 0C17.8866 0 18.0038 0 18.1211 0C18.2336 0.0615463 18.3555 0.0146539 18.4722 0.0293077C18.5888 0.0146539 18.7113 0.0615463 18.8239 0C18.8825 0 18.9411 0 18.9997 0C19.0009 1.26609 19.0021 2.53219 19.0032 3.79828C18.9979 3.81235 18.9927 3.82701 18.9874 3.84107C18.7119 4.03802 18.3825 3.96944 18.0824 3.9964C15.7993 4.20332 13.7612 5.01104 11.9975 6.47232C9.71442 8.36385 8.37154 10.7993 8.03275 13.7377C7.67988 16.7998 8.49874 19.5653 10.4413 21.9609C12.2097 24.1414 14.5144 25.4391 17.2817 25.9086C17.7231 25.9837 18.1715 26.0165 18.6187 26.0487C18.7348 26.0569 18.8543 26.0481 18.9546 26.1261C18.9804 26.1443 18.9968 26.1695 19.0038 26.2Z" fill="#FD3018"/>
<path id="Vector_3" d="M34.0001 14.5353C33.9251 14.3987 33.9186 14.2622 34.0001 14.125C34.0001 14.2616 34.0001 14.3981 34.0001 14.5353Z" fill="#E61E14"/>
<path id="Vector_4" d="M34.0001 15.8791C33.9186 15.7425 33.9251 15.6059 34.0001 15.4688C34.0001 15.6053 34.0001 15.7419 34.0001 15.8791Z" fill="#E61E14"/>
<path id="Vector_5" d="M18.4675 0.0545124C18.3503 0.0474786 18.2254 0.0890956 18.1211 0C18.2383 0 18.3556 0 18.4728 0C18.5138 0.0222739 18.5121 0.0404447 18.4675 0.0545124Z" fill="#E61E14"/>
<path id="Vector_6" d="M18.4688 0.0545124C18.4711 0.0363416 18.4729 0.0181708 18.474 0C18.5913 0 18.7085 0 18.8257 0C18.7155 0.0720971 18.5913 0.0574432 18.4688 0.0545124Z" fill="#E61E14"/>
<path id="Vector_7" d="M19.6445 29.9967C19.7424 29.9363 19.8397 29.9205 19.9376 29.9967C19.8397 29.9967 19.7418 29.9967 19.6445 29.9967Z" fill="#E61E14"/>
<path id="Vector_8" d="M17.9453 30.0029C18.0233 29.9138 18.1018 29.9396 18.1798 30.0029C18.1018 30.0029 18.0233 30.0029 17.9453 30.0029Z" fill="#E61E14"/>
<path id="Vector_9" d="M4 13.9453C4.07972 14.0039 4.05744 14.0625 4 14.1212C4 14.0625 4 14.0039 4 13.9453Z" fill="#E61E14"/>
<path id="Vector_10" d="M4 15.8828C4.04279 15.9221 4.05803 15.9608 4 16C4 15.9608 4 15.9215 4 15.8828Z" fill="#E61E14"/>
<path id="Vector_11" d="M19.0043 7.49536C19.1801 7.4977 19.3577 7.51939 19.5306 7.49887C19.8044 7.46663 19.8905 7.54635 19.8882 7.84001C19.873 9.80246 19.8806 11.7643 19.8806 13.7268C19.8806 14.1195 19.8806 14.1195 20.2592 14.1195C21.431 14.1195 22.6021 14.1242 23.7738 14.1148C23.9819 14.113 24.0681 14.1506 24.0564 14.3827C24.0358 14.7918 24.0364 15.2033 24.0564 15.6124C24.0675 15.841 23.9866 15.8832 23.7756 15.8821C22.2914 15.8733 20.8079 15.8774 19.3237 15.878C19.2165 15.878 19.1092 15.8832 19.0019 15.8868L19.0014 15.868C18.8302 15.7443 18.8613 15.5567 18.8601 15.3862C18.8525 14.3932 18.8566 13.4003 18.8566 12.4067C18.8566 10.946 18.8525 9.48594 18.8607 8.02524C18.8618 7.84822 18.8144 7.64658 19.0055 7.5188L19.0043 7.49536Z" fill="#13C37B"/>
<path id="Vector_12" d="M19.0036 7.52118C19.0024 10.3042 19.0012 13.0873 19.0001 15.8704C18.7193 15.8798 18.3647 15.9888 18.1789 15.8329C17.9995 15.6822 18.1244 15.3188 18.1238 15.0503C18.1191 12.6412 18.1244 10.2316 18.1156 7.82246C18.115 7.58566 18.1683 7.48425 18.4192 7.51239C18.612 7.5329 18.8084 7.51942 19.0036 7.52118Z" fill="#61DE56"/>
</g>
<defs>
<filter id="filter0_d_1_77" x="0" y="0" width="38.0001" height="38.0029" filterUnits="userSpaceOnUse" color-interpolation-filters="sRGB">
<feFlood flood-opacity="0" result="BackgroundImageFix"/>
<feColorMatrix in="SourceAlpha" type="matrix" values="0 0 0 0 0 0 0 0 0 0 0 0 0 0 0 0 0 0 127 0" result="hardAlpha"/>
<feOffset dy="4"/>
<feGaussianBlur stdDeviation="2"/>
<feComposite in2="hardAlpha" operator="out"/>
<feColorMatrix type="matrix" values="0 0 0 0 0 0 0 0 0 0 0 0 0 0 0 0 0 0 0.25 0"/>
<feBlend mode="normal" in2="BackgroundImageFix" result="effect1_dropShadow_1_77"/>
<feBlend mode="normal" in="SourceGraphic" in2="effect1_dropShadow_1_77" result="shape"/>
</filter>
</defs>
</svg>
