<svg width="40" height="40" viewBox="0 0 40 40" fill="none" xmlns="http://www.w3.org/2000/svg">
<g id="Group">
<path id="Vector" d="M0.000785022 39.132C0.153864 39.1116 0.198611 39.2379 0.254347 39.3336C0.482003 39.7226 0.835263 39.8716 1.26546 39.885C1.34317 39.8873 1.42167 39.8858 1.49939 39.8858C6.9655 39.8858 12.4324 39.8858 17.8985 39.8858C18.1725 39.8858 18.4449 39.896 18.6882 39.7297C18.839 39.6261 18.8751 39.5234 18.74 39.3838C18.6765 39.3187 18.6129 39.2528 18.5485 39.1885C16.1832 36.8253 13.818 34.4613 11.4527 32.0982C11.0759 31.7217 11.0751 31.7225 10.5868 31.9656C7.44201 33.5319 4.33489 35.1719 1.19009 36.7375C0.929466 36.8669 0.753621 37.0457 0.649213 37.3179C0.529105 37.6332 0.397221 37.9461 0.245712 38.2481C0.19233 38.3547 0.177415 38.5124 0 38.5069" fill="#FEFEFE"/>
<path id="Vector_2" d="M18.9159 0C18.8782 0.225102 18.6851 0.167062 18.5501 0.18667C16.6527 0.460401 14.9374 1.15532 13.4412 2.36711C11.7565 3.73184 10.6583 5.48168 10.0632 7.54995C9.21699 10.4912 9.40775 13.3783 10.4942 16.2348C11.7534 19.5471 13.5786 22.5377 15.6086 25.4185C16.7037 26.9731 17.8491 28.4892 19.1028 29.919C19.6923 30.592 20.2591 30.6124 20.8604 29.9669C21.9171 28.8319 22.8379 27.5841 23.7564 26.337C25.0925 24.5221 26.336 22.6459 27.4334 20.6765C28.7256 18.3588 29.8992 15.9799 30.3121 13.3352C30.8483 9.90372 30.2375 6.68641 28.0512 3.90204C26.6225 2.08318 24.7243 0.93492 22.4658 0.400792C22.0474 0.301967 21.6274 0.214122 21.1988 0.170984C21.0951 0.160787 20.9468 0.181964 20.9491 0.000784329" fill="#FEFEFE"/>
<path id="Vector_3" d="M20.9472 0C21.2942 0.145885 21.6725 0.119218 22.0336 0.196082C26.418 1.13257 29.4513 4.23616 30.3313 8.63703C30.8965 11.4638 30.486 14.1595 29.4168 16.7988C28.0108 20.2678 26.02 23.3926 23.829 26.4037C22.9333 27.6343 21.9967 28.8343 21.0045 29.9896C20.3882 30.7073 19.6228 30.7128 19.0184 29.9904C15.9497 26.3189 13.1817 22.4483 11.1572 18.089C10.3612 16.3752 9.65934 14.6089 9.5094 12.7171C9.15457 8.22683 10.3227 4.33577 14.2431 1.66356C15.5855 0.74825 17.1029 0.259613 18.7169 0.0752956C18.7876 0.0674523 18.8779 0.101178 18.9155 0.000784329C19.4627 0.000784329 20.0099 0.000784329 20.557 0.000784329C20.6088 0.0501971 20.6614 0.0501971 20.7132 0.000784329C20.791 0 20.8687 0 20.9472 0Z" fill="#38B000"/>
<path id="Vector_4" d="M0 38.5022C0.262197 38.0567 0.422342 37.5657 0.629588 37.0951C0.701024 36.9328 0.797582 36.8238 0.960867 36.7406C4.24697 35.0684 7.53071 33.3923 10.8105 31.7099C11.0146 31.6048 11.1363 31.6119 11.3067 31.7821C13.8352 34.3171 16.3693 36.8465 18.9112 39.3689C19.138 39.594 19.0737 39.6544 18.8287 39.7823C18.5548 39.9258 18.2887 39.9901 17.9809 39.9901C12.5101 39.9838 7.03929 39.976 1.56847 39.9964C0.842328 39.9987 0.311654 39.7972 0 39.1258C0 38.9187 0 38.7101 0 38.5022Z" fill="#38B000"/>
<path id="Vector_5" d="M20.7148 0C20.663 0.100394 20.6104 0.0800016 20.5586 0C20.6104 0 20.663 0 20.7148 0Z" fill="#494949"/>
<path id="Vector_6" d="M15.3811 29.3919C15.5036 29.4154 15.5389 29.526 15.6017 29.6021C16.1301 30.2453 16.6474 30.8978 17.1812 31.5371C18.7583 33.4273 21.2602 33.4202 22.8451 31.5363C25.4883 28.395 27.8575 25.064 29.842 21.4655C29.9417 21.2843 30.0414 21.1965 30.2581 21.2035C30.7393 21.22 31.2213 21.2098 31.7033 21.2098C32.2897 21.2098 32.6791 21.489 32.9091 22.0255C34.0937 24.791 35.2814 27.5558 36.4786 30.3159C36.5752 30.5378 36.5233 30.6139 36.3247 30.7166C31.4129 33.2555 26.5041 35.7999 21.5985 38.3497C21.4007 38.4525 21.29 38.4329 21.133 38.276C18.6037 35.7426 16.068 33.2155 13.5285 30.6923C13.3519 30.5166 13.2906 30.4272 13.5756 30.297C14.118 30.0492 14.6432 29.7637 15.1755 29.4931C15.2438 29.4594 15.3136 29.4256 15.3811 29.3919Z" fill="#38B000"/>
<path id="Vector_7" d="M13.9832 27.4653C10.073 29.4606 6.18322 31.4458 2.19531 33.4803C2.5211 32.7172 2.80292 32.0544 3.08788 31.3924C4.40436 28.3296 5.73419 25.2715 7.02948 22.1993C7.33014 21.4864 7.79173 21.1593 8.55713 21.2056C9.03678 21.2346 9.58865 21.0777 9.98194 21.2667C10.376 21.4566 10.4883 22.0472 10.7285 22.4589C11.6595 24.0535 12.6651 25.6002 13.7375 27.1037C13.8176 27.2182 13.8945 27.3359 13.9832 27.4653Z" fill="#38B000"/>
<path id="Vector_8" d="M23.6562 39.9294C24.5009 39.4894 25.344 39.0478 26.1895 38.6101C29.8532 36.7129 33.5185 34.8195 37.1775 32.9136C37.4467 32.7732 37.5472 32.7904 37.6689 33.0814C38.3809 34.7787 39.1165 36.4666 39.841 38.1584C40.2885 39.2031 39.7743 39.9906 38.647 39.9906C33.7658 39.9914 28.8845 39.9914 24.0032 39.9914C23.8925 39.9914 23.7819 39.9914 23.6712 39.9914C23.6657 39.971 23.661 39.9498 23.6562 39.9294Z" fill="#38B000"/>
<path id="Vector_9" d="M20.0162 14.0847C18.0662 14.0894 16.4875 12.5223 16.4844 10.5779C16.482 8.63672 18.0599 7.05238 20.0013 7.04689C21.9403 7.0414 23.5284 8.62261 23.5331 10.563C23.537 12.5105 21.9701 14.08 20.0162 14.0847Z" fill="#FEFEFE"/>
<path id="Vector_10" d="M20.0104 11.7329C19.3643 11.7329 18.8407 11.2184 18.836 10.5776C18.8313 9.93051 19.3871 9.37677 20.0292 9.39089C20.6627 9.40422 21.1887 9.94384 21.184 10.5768C21.18 11.2192 20.6588 11.7321 20.0104 11.7329Z" fill="#38B000"/>
</g>
</svg>
